<?xml version="1.0" encoding="utf-8"?>
<!-- Generator: Adobe Illustrator 26.2.1, SVG Export Plug-In . SVG Version: 6.00 Build 0)  -->
<svg version="1.1" xmlns="http://www.w3.org/2000/svg" xmlns:xlink="http://www.w3.org/1999/xlink" x="0px" y="0px"
	 viewBox="0 0 642 230.7" style="enable-background:new 0 0 642 230.7;" xml:space="preserve">
<style type="text/css">
	.st0{fill:none;}
	.st1{fill:#FDB913;stroke:#CBDB2A;stroke-miterlimit:10;}
	.st2{fill:#CBDB2A;}
	.st3{fill:#CBDB2A;stroke:#000000;stroke-miterlimit:10;}
	.st4{clip-path:url(#SVGID_00000127751758816249525300000017200402861166295196_);}
	.st5{fill:none;stroke:#662D91;stroke-width:3;stroke-miterlimit:10;}
	.st6{display:none;}
	.st7{display:inline;}
	.st8{stroke:#662D91;stroke-width:3;stroke-miterlimit:10;}
</style>
<g id="Layer_1">
	<g>
		<rect class="st0" width="642" height="230.7"/>
		<g>
			<circle class="st1" cx="534.8" cy="115.4" r="85.5"/>
			<path class="st2" d="M474.3,54.8v121.1h121.1V54.8H474.3z M534.8,172.4c-31.5,0-57.1-25.5-57.1-57.1s25.5-57.1,57.1-57.1
				s57.1,25.5,57.1,57.1S566.3,172.4,534.8,172.4z"/>
		</g>
		<g>
			<circle class="st3" cx="107.1" cy="115.4" r="85.5"/>
			<polygon points="107.1,30.5 44.5,173.4 169.8,173.4 			"/>
		</g>
		<g>
			<ellipse transform="matrix(0.7071 -0.7071 0.7071 0.7071 12.4469 260.759)" cx="321" cy="115.4" rx="85.5" ry="85.5"/>
			<g>
				<defs>
					
						<ellipse id="SVGID_1_" transform="matrix(0.7071 -0.7071 0.7071 0.7071 12.4468 260.759)" cx="321" cy="115.4" rx="85.5" ry="85.5"/>
				</defs>
				<clipPath id="SVGID_00000183927354836648285820000008434465110069388421_">
					<use xlink:href="#SVGID_1_"  style="overflow:visible;"/>
				</clipPath>
				<g style="clip-path:url(#SVGID_00000183927354836648285820000008434465110069388421_);">
					<line class="st5" x1="165.1" y1="219.3" x2="476.9" y2="219.3"/>
					<line class="st5" x1="165.1" y1="167.3" x2="476.9" y2="167.3"/>
					<line class="st5" x1="165.1" y1="115.4" x2="476.9" y2="115.4"/>
					<line class="st5" x1="165.1" y1="63.4" x2="476.9" y2="63.4"/>
					<line class="st5" x1="165.1" y1="11.4" x2="476.9" y2="11.4"/>
					<line class="st5" x1="424.9" y1="-40.6" x2="424.9" y2="271.3"/>
					<line class="st5" x1="373" y1="-40.6" x2="373" y2="271.3"/>
					<line class="st5" x1="321" y1="-40.6" x2="321" y2="271.3"/>
					<line class="st5" x1="269" y1="-40.6" x2="269" y2="271.3"/>
					<line class="st5" x1="217" y1="-40.6" x2="217" y2="271.3"/>
				</g>
			</g>
		</g>
	</g>
</g>
<g id="Layer_2" class="st6">
	<g class="st7">
		<path class="st8" d="M370.5,114.3h36c-0.2-19.7-7.1-37.7-18.5-52h-17.5V114.3z"/>
		<rect x="318.4" y="62.3" class="st8" width="52" height="52"/>
		<path class="st8" d="M370.5,62.3V45.7c-14-9.9-31-15.8-49.5-15.8c-0.9,0-1.7,0-2.6,0.1v32.3H370.5z"/>
		<path class="st8" d="M388,62.3c-5-6.3-10.9-11.9-17.5-16.6v16.6H388z"/>
		<rect x="266.4" y="114.3" class="st8" width="52" height="52"/>
		<path class="st8" d="M318.4,62.3V29.9c-19.8,0.6-37.8,7.8-52,19.6v12.7H318.4z"/>
		<rect x="266.4" y="62.3" class="st8" width="52" height="52"/>
		<rect x="318.4" y="114.3" class="st8" width="52" height="52"/>
		<path class="st8" d="M406.4,114.3h-36v52h19.2c10.6-14.2,16.9-31.9,16.9-51C406.5,115,406.4,114.6,406.4,114.3z"/>
		<path class="st8" d="M318.4,166.3v34.5c0.9,0,1.7,0.1,2.6,0.1c18.4,0,35.5-5.9,49.5-15.8v-18.7H318.4z"/>
		<path class="st8" d="M266.4,166.3v14.8c14.2,11.8,32.3,19.1,52,19.6v-34.5H266.4z"/>
		<path class="st8" d="M370.5,185c7.3-5.2,13.8-11.5,19.2-18.7h-19.2V185z"/>
		<path class="st8" d="M266.4,114.3h-30.9c0,0.4,0,0.7,0,1.1c0,19.1,6.3,36.7,16.9,51h14V114.3z"/>
		<path class="st8" d="M252.4,166.3c4.1,5.5,8.8,10.5,14,14.8v-14.8H252.4z"/>
		<path class="st8" d="M266.4,62.3H254c-11.4,14.3-18.2,32.4-18.5,52h30.9V62.3z"/>
		<path class="st8" d="M266.4,49.6c-4.6,3.8-8.7,8-12.4,12.7h12.4V49.6z"/>
	</g>
</g>
</svg>
